<svg width="12" height="10" viewBox="0 0 12 10" fill="none" xmlns="http://www.w3.org/2000/svg">
<path d="M1.7 7.60769C1.7 7.95043 1.82643 8.27914 2.05147 8.52149C2.27652 8.76385 2.58174 8.9 2.9 8.9C3.21826 8.9 3.52348 8.76385 3.74853 8.52149C3.97357 8.27914 4.1 7.95043 4.1 7.60769M1.7 7.60769C1.7 7.26495 1.82643 6.93625 2.05147 6.69389C2.27652 6.45154 2.58174 6.31538 2.9 6.31538C3.21826 6.31538 3.52348 6.45154 3.74853 6.69389C3.97357 6.93625 4.1 7.26495 4.1 7.60769M1.7 7.60769H0.5V3.73077M4.1 7.60769H7.7M7.7 7.60769C7.7 7.95043 7.82643 8.27914 8.05147 8.52149C8.27652 8.76385 8.58174 8.9 8.9 8.9C9.21826 8.9 9.52348 8.76385 9.74853 8.52149C9.97357 8.27914 10.1 7.95043 10.1 7.60769M7.7 7.60769C7.7 7.26495 7.82643 6.93625 8.05147 6.69389C8.27652 6.45154 8.58174 6.31538 8.9 6.31538C9.21826 6.31538 9.52348 6.45154 9.74853 6.69389C9.97357 6.93625 10.1 7.26495 10.1 7.60769M10.1 7.60769H11.3V5.02308C11.3 4.68034 11.1736 4.35163 10.9485 4.10928C10.7235 3.86692 10.4183 3.73077 10.1 3.73077H9.5M0.5 3.73077L1.7 0.5H7.1L9.5 3.73077M0.5 3.73077H9.5M5.9 3.73077V0.5" stroke="white" stroke-linecap="round" stroke-linejoin="round"/>
</svg>
