<svg width="10" height="12" viewBox="0 0 10 12" fill="none" xmlns="http://www.w3.org/2000/svg">
<path d="M2.6 2.3V1.7C2.6 1.38174 2.7475 1.07652 3.01005 0.851472C3.2726 0.626428 3.6287 0.5 4 0.5H5.4C5.7713 0.5 6.1274 0.626428 6.38995 0.851472C6.6525 1.07652 6.8 1.38174 6.8 1.7V2.3M0.5 4.7H8.9M0.5 8.3H8.9M2.6 10.7V11.3M6.8 10.7V11.3M0.5 3.5C0.5 3.18174 0.6475 2.87652 0.91005 2.65147C1.1726 2.42643 1.5287 2.3 1.9 2.3H7.5C7.8713 2.3 8.2274 2.42643 8.48995 2.65147C8.7525 2.87652 8.9 3.18174 8.9 3.5V9.5C8.9 9.81826 8.7525 10.1235 8.48995 10.3485C8.2274 10.5736 7.8713 10.7 7.5 10.7H1.9C1.5287 10.7 1.1726 10.5736 0.91005 10.3485C0.6475 10.1235 0.5 9.81826 0.5 9.5V3.5Z" stroke="white" stroke-linecap="round" stroke-linejoin="round"/>
</svg>
