<svg width="10" height="11" viewBox="0 0 10 11" fill="none" xmlns="http://www.w3.org/2000/svg">
<path d="M5.75 8.58421H8.9M7.325 7.06842V10.1M0.5 9.59474V8.58421C0.5 8.04819 0.721249 7.53413 1.11508 7.15511C1.5089 6.77609 2.04305 6.56316 2.6 6.56316H4.7M1.55 2.52105C1.55 3.05707 1.77125 3.57113 2.16508 3.95015C2.5589 4.32917 3.09305 4.54211 3.65 4.54211C4.20695 4.54211 4.7411 4.32917 5.13492 3.95015C5.52875 3.57113 5.75 3.05707 5.75 2.52105C5.75 1.98504 5.52875 1.47097 5.13492 1.09195C4.7411 0.712932 4.20695 0.5 3.65 0.5C3.09305 0.5 2.5589 0.712932 2.16508 1.09195C1.77125 1.47097 1.55 1.98504 1.55 2.52105Z" stroke="white" stroke-linecap="round" stroke-linejoin="round"/>
</svg>
