<svg width="70" height="70" viewBox="0 0 70 70" fill="none" xmlns="http://www.w3.org/2000/svg">
<path d="M35 7.65625C29.5919 7.65625 24.3053 9.25993 19.8086 12.2645C15.312 15.2691 11.8073 19.5396 9.73768 24.536C7.6681 29.5324 7.1266 35.0303 8.18166 40.3345C9.23673 45.6387 11.841 50.5109 15.6651 54.3349C19.4892 58.159 24.3613 60.7633 29.6655 61.8183C34.9697 62.8734 40.4676 62.3319 45.464 60.2623C50.4604 58.1927 54.7309 54.688 57.7355 50.1914C60.7401 45.6947 62.3438 40.4081 62.3438 35C62.3358 27.7504 59.4524 20.8001 54.3262 15.6738C49.2 10.5476 42.2496 7.66421 35 7.65625ZM35 60.1562C30.0246 60.1562 25.1609 58.6809 21.0239 55.9167C16.887 53.1525 13.6627 49.2236 11.7587 44.6269C9.85465 40.0302 9.35647 34.9721 10.3271 30.0923C11.2978 25.2124 13.6937 20.73 17.2119 17.2118C20.73 13.6937 25.2124 11.2978 30.0923 10.3271C34.9721 9.35646 40.0302 9.85464 44.6269 11.7587C49.2236 13.6627 53.1525 16.887 55.9167 21.0239C58.6809 25.1609 60.1563 30.0246 60.1563 35C60.149 41.6696 57.4963 48.064 52.7802 52.7802C48.064 57.4963 41.6696 60.149 35 60.1562ZM47.611 34.073L30.111 23.1355C29.9454 23.0321 29.7552 22.9748 29.5601 22.9697C29.365 22.9645 29.172 23.0117 29.0013 23.1063C28.8305 23.2009 28.6882 23.3394 28.5891 23.5075C28.4899 23.6757 28.4376 23.8673 28.4375 24.0625V45.9375C28.4374 46.1328 28.4896 46.3245 28.5887 46.4928C28.6877 46.6611 28.83 46.7998 29.0008 46.8945C29.1634 46.9837 29.3458 47.0307 29.5313 47.0312C29.7363 47.0311 29.9372 46.9733 30.111 46.8645L47.611 35.927C47.768 35.8286 47.8975 35.6919 47.9873 35.5298C48.077 35.3676 48.1241 35.1853 48.1241 35C48.1241 34.8147 48.077 34.6324 47.9873 34.4702C47.8975 34.3081 47.768 34.1714 47.611 34.073ZM30.625 43.9633V26.0367L44.9668 35L30.625 43.9633Z" fill="white"/>
</svg>
