<svg width="10" height="10" viewBox="0 0 10 10" fill="none" xmlns="http://www.w3.org/2000/svg">
<path d="M6.33333 4.7H4.7V2.36667M0.5 4.7C0.5 5.25155 0.608636 5.7977 0.819706 6.30727C1.03078 6.81684 1.34015 7.27984 1.73015 7.66985C2.12016 8.05985 2.58316 8.36922 3.09273 8.58029C3.6023 8.79136 4.14845 8.9 4.7 8.9C5.25155 8.9 5.7977 8.79136 6.30727 8.58029C6.81684 8.36922 7.27984 8.05985 7.66985 7.66985C8.05985 7.27984 8.36922 6.81684 8.58029 6.30727C8.79136 5.7977 8.9 5.25155 8.9 4.7C8.9 4.14845 8.79136 3.6023 8.58029 3.09273C8.36922 2.58316 8.05985 2.12016 7.66985 1.73015C7.27984 1.34015 6.81684 1.03078 6.30727 0.819706C5.7977 0.608636 5.25155 0.5 4.7 0.5C4.14845 0.5 3.6023 0.608636 3.09273 0.819706C2.58316 1.03078 2.12016 1.34015 1.73015 1.73015C1.34015 2.12016 1.03078 2.58316 0.819706 3.09273C0.608636 3.6023 0.5 4.14845 0.5 4.7Z" stroke="white" stroke-linecap="round" stroke-linejoin="round"/>
</svg>
