<svg width="11" height="11" viewBox="0 0 11 11" fill="none" xmlns="http://www.w3.org/2000/svg">
<g clip-path="url(#clip0_5316_52490)">
<path d="M3.86238 6.12495H2.18457C2.09555 6.1298 2.01014 6.16173 1.93977 6.21646C1.8694 6.2712 1.81743 6.34612 1.79082 6.4312L0.91582 9.0562C0.87207 9.09995 0.87207 9.1437 0.87207 9.18745C0.87207 9.44995 1.04707 9.62495 1.30957 9.62495H9.18457C9.44707 9.62495 9.62207 9.44995 9.62207 9.18745C9.62207 9.1437 9.62207 9.09995 9.57832 9.0562L8.70332 6.4312C8.67671 6.34612 8.62474 6.2712 8.55437 6.21646C8.484 6.16173 8.39859 6.1298 8.30957 6.12495H6.63176M7.87207 3.49995C7.87207 5.4687 5.24707 7.43745 5.24707 7.43745C5.24707 7.43745 2.62207 5.4687 2.62207 3.49995C2.62207 2.80376 2.89863 2.13608 3.39091 1.6438C3.8832 1.15152 4.55088 0.874954 5.24707 0.874954C5.94326 0.874954 6.61094 1.15152 7.10323 1.6438C7.59551 2.13608 7.87207 2.80376 7.87207 3.49995ZM6.12207 3.49995C6.12207 3.9832 5.73032 4.37495 5.24707 4.37495C4.76382 4.37495 4.37207 3.9832 4.37207 3.49995C4.37207 3.0167 4.76382 2.62495 5.24707 2.62495C5.73032 2.62495 6.12207 3.0167 6.12207 3.49995Z" stroke="white" stroke-width="0.776018" stroke-linecap="round" stroke-linejoin="round"/>
</g>
<defs>
<clipPath id="clip0_5316_52490">
<rect width="10.5" height="10.5" fill="white"/>
</clipPath>
</defs>
</svg>
