<svg width="21" height="21" viewBox="0 0 21 21" fill="none" xmlns="http://www.w3.org/2000/svg">
<path d="M10.6709 0.5C16.1741 0.50024 20.4999 4.98298 20.5 10.5303V10.5322C20.5185 15.9803 16.1418 20.4104 10.7227 20.4395C9.71583 20.4393 9.02144 20.3654 8.38867 20.1621C7.75576 19.9587 7.14911 19.6148 6.33594 19.0244L5.94336 18.7402L5.64648 19.123C5.21068 19.6857 4.23234 20.2428 3.33203 20.4336C2.88363 20.5286 2.53077 20.5156 2.31055 20.4307C2.20843 20.3912 2.14366 20.3401 2.10156 20.2842C2.06072 20.2298 2.02138 20.144 2.00879 20.002C2.00417 18.5784 1.68812 17.3763 1.35059 16.1299H1.35156C0.946747 14.5839 0.5 12.9089 0.5 10.4746C0.500253 4.79094 5.14253 0.5 10.6709 0.5ZM10.8369 4.66797C7.7235 4.50661 5.33629 6.69068 4.81641 9.97363V9.97461C4.60533 11.3133 4.6879 12.7815 4.89941 13.9365C5.00516 14.5138 5.14608 15.0321 5.30957 15.4277C5.39076 15.6242 5.48488 15.8079 5.59375 15.957C5.67989 16.075 5.81597 16.228 6.01172 16.3076L6.09961 16.3369L6.11035 16.3398C6.35708 16.3995 6.59209 16.3097 6.72363 16.25C6.88141 16.1784 7.0441 16.0756 7.19531 15.9678C7.38817 15.8303 7.58548 15.6654 7.7666 15.502C8.51161 15.9435 9.34778 16.2115 10.2139 16.2812L10.2217 16.2822H10.2305C13.3248 16.4316 15.9795 14.1447 16.3369 11.0928L16.3643 10.7959L16.3652 10.7812C16.4835 7.73494 14.2717 5.12923 11.3105 4.71973L11.3115 4.69238L10.8369 4.66797Z" fill="#001763" stroke="#001763"/>
</svg>
