<svg width="40" height="40" viewBox="0 0 40 40" fill="none" xmlns="http://www.w3.org/2000/svg">
<rect width="40" height="40" rx="10" fill="#00B0F2"/>
<path d="M7.62918 20.1162C7.63003 20.1166 7.63104 20.1166 7.63189 20.1162C7.68656 20.0887 7.74123 20.0626 7.79453 20.0378C8.66759 19.6306 9.55148 19.2477 10.435 18.8664C10.5574 18.8135 10.6815 18.757 10.8052 18.7072C10.8782 18.6753 10.9513 18.6447 11.0243 18.6128L11.4446 18.4311C11.7256 18.3104 12.0053 18.1896 12.2864 18.0689C12.8472 17.8275 13.408 17.5861 13.9688 17.3433C15.0904 16.8604 16.2134 16.3762 17.335 15.8933C18.4566 15.4105 19.5796 14.9263 20.7012 14.4434C21.8228 13.9606 22.9458 13.4763 24.0674 12.9935C25.189 12.5106 26.312 12.0264 27.4336 11.5435C27.683 11.4353 27.953 11.2744 28.2203 11.2272C28.4449 11.187 28.664 11.1093 28.89 11.0662C29.3185 10.9844 29.7911 10.9511 30.2017 11.1301C30.3437 11.1925 30.4746 11.2799 30.5834 11.3895C31.1043 11.9085 31.0312 12.7604 30.921 13.4902C30.1535 18.5768 29.386 23.6647 28.6172 28.7513C28.5124 29.4492 28.3691 30.2151 27.8221 30.6563C27.3591 31.0295 26.7005 31.0712 26.1287 30.913C25.5569 30.7534 25.0526 30.419 24.5579 30.0902C22.5062 28.7221 20.4532 27.3541 18.4015 25.986C17.9137 25.6613 17.3709 25.2367 17.3764 24.647C17.3791 24.2919 17.5899 23.9755 17.8049 23.6938C19.5879 21.3517 22.1604 19.7423 24.0743 17.5084C24.3443 17.1934 24.5565 16.6246 24.1859 16.4428C23.9654 16.3346 23.7119 16.4816 23.5107 16.6218C20.9809 18.3908 18.4525 20.1613 15.9227 21.9303C15.0973 22.5075 14.232 23.1014 13.2372 23.2429C12.3471 23.3706 11.4514 23.1208 10.5903 22.8655C9.86826 22.6518 9.1476 22.4326 8.42972 22.2064C8.04804 22.0871 7.65396 21.9581 7.35909 21.6875C7.06423 21.417 6.89477 20.9619 7.07252 20.6011C7.1839 20.3754 7.39959 20.2326 7.62644 20.1162C7.6273 20.1158 7.62832 20.1157 7.62918 20.1162Z" fill="white"/>
</svg>
