<svg width="40" height="40" viewBox="0 0 40 40" fill="none" xmlns="http://www.w3.org/2000/svg">
<rect width="40" height="40" rx="10" fill="#37CF00"/>
<path d="M25.8954 22.5026C26.3764 22.6758 28.9961 23.9597 29.5283 24.2247C30.0604 24.4896 30.4084 24.6221 30.5619 24.8666C30.6949 25.0806 30.6949 26.1505 30.2549 27.3834C29.8148 28.6164 27.6863 29.7474 26.6629 29.9003C25.7419 30.0327 24.5855 30.0939 23.3064 29.6863C22.5286 29.4417 21.536 29.1157 20.267 28.5654C14.9252 26.2728 11.4356 20.9232 11.1695 20.5666C10.9034 20.21 9 17.6931 9 15.0846C9 12.4761 10.3713 11.1922 10.8625 10.6623C11.3537 10.1325 11.9268 10 12.2849 10C12.6431 10 13.0013 10 13.3083 10.0204C13.6357 10.0306 14.0758 9.89811 14.5056 10.9273C14.9456 11.987 16.0099 14.5955 16.1429 14.8604C16.276 15.1254 16.3578 15.431 16.1839 15.7877C16.0099 16.1443 15.9178 16.3685 15.6517 16.6742C15.3857 16.9799 15.0889 17.3671 14.8535 17.6014C14.5875 17.8664 14.3112 18.1517 14.6182 18.6815C14.9252 19.2114 15.9894 20.9436 17.5756 22.3498C19.6018 24.1533 21.3211 24.7138 21.8532 24.9787C22.3853 25.2436 22.7026 25.2029 23.0096 24.8462C23.3268 24.4896 24.3399 23.2974 24.6981 22.7676C25.0563 22.2377 25.4042 22.3294 25.8954 22.5026Z" fill="white"/>
</svg>
