<svg width="40" height="40" viewBox="0 0 40 40" fill="none" xmlns="http://www.w3.org/2000/svg">
<rect width="40" height="40" rx="10" fill="#49E770"/>
<path d="M23.3165 25.5703C18.4429 25.5703 14.4779 21.6028 14.4766 16.7278C14.4779 15.492 15.4838 14.4871 16.7166 14.4871C16.8433 14.4871 16.9687 14.4978 17.0888 14.5191C17.3529 14.5632 17.6038 14.6526 17.8346 14.7874C17.8679 14.8074 17.8906 14.8394 17.8959 14.8768L18.4109 18.1237C18.4176 18.1624 18.4056 18.1998 18.3802 18.2278C18.096 18.5427 17.7332 18.7696 17.3289 18.883C17.2248 18.9123 17.1682 19.0251 17.2075 19.1259C17.8719 20.8181 19.2247 22.17 20.9177 22.8372C21.0183 22.8771 21.1313 22.8213 21.1605 22.7171C21.2739 22.3127 21.5007 21.9498 21.8156 21.6655C21.8383 21.6441 21.869 21.6335 21.8996 21.6335C21.9063 21.6335 21.913 21.6335 21.921 21.6348L25.1669 22.1499C25.2056 22.1566 25.2376 22.178 25.2576 22.2113C25.3911 22.4422 25.4804 22.6944 25.5258 22.9587C25.5472 23.0761 25.5565 23.2002 25.5565 23.3296C25.5565 24.5641 24.5519 25.569 23.3165 25.5703Z" fill="white"/>
<path d="M31.9583 18.9297C31.9586 18.9297 31.9589 18.9294 31.9589 18.9291C31.6959 15.9587 30.3351 13.2031 28.1273 11.1708C25.906 9.12633 23.0243 8 20.0105 8C13.3959 8 8.01403 13.3835 8.01403 20C8.01403 21.7287 8.3851 23.4225 9.09643 24.9772C9.47748 25.8099 9.55992 26.7683 9.18298 27.6029C8.30519 29.5466 9.86978 31.7089 11.9905 31.4829L14.4316 31.2228C15.1187 31.1495 15.8089 31.2624 16.4689 31.4671C17.6103 31.8211 18.7965 32 20.0091 32C20.4214 32 20.8443 31.9786 21.2686 31.9346C21.6421 31.8946 22.0197 31.8359 22.3906 31.7611C27.9299 30.6415 31.9736 25.7238 32.0056 20.0641V20C32.0056 19.6399 31.9896 19.2798 31.9577 18.9304C31.9576 18.93 31.9579 18.9297 31.9583 18.9297ZM15.7982 28.6001C15.7977 28.599 15.7965 28.5984 15.7953 28.5985L13.6893 28.8231C12.5948 28.9398 11.787 27.824 12.2398 26.8206L12.3965 26.4732C12.5127 26.2158 12.48 25.9155 12.3112 25.6891C12.2912 25.6624 12.2712 25.6357 12.2485 25.605C11.0612 23.9649 10.4341 22.0271 10.4341 20.0013C10.4341 14.7193 14.73 10.4222 20.0105 10.4222C24.9574 10.4222 29.1506 14.2829 29.5548 19.2113C29.5762 19.4755 29.5882 19.7411 29.5882 20.0027C29.5882 20.0774 29.5868 20.1508 29.5855 20.2295C29.4841 24.6481 26.3983 28.4008 22.081 29.3563C21.7515 29.4297 21.414 29.4858 21.0778 29.5218C20.7282 29.5618 20.3694 29.5819 20.0132 29.5819C18.7444 29.5819 17.5117 29.3363 16.347 28.8505C16.2176 28.7985 16.0908 28.7424 15.9721 28.6851L15.7995 28.6014C15.799 28.6011 15.7985 28.6007 15.7982 28.6001Z" fill="white"/>
</svg>
