<svg width="19" height="18" viewBox="0 0 19 18" fill="none" xmlns="http://www.w3.org/2000/svg">
<path d="M2.87402 0.5C3.19192 0.5 3.48763 0.500107 3.73633 0.516602L3.74512 0.517578H3.88867C3.92615 0.517038 3.95186 0.517322 3.97461 0.518555C4.01511 0.520768 4.03299 0.52616 4.0459 0.532227C4.0651 0.54131 4.18996 0.606411 4.35547 1.00195V1.00293C4.54786 1.46625 4.87547 2.26567 5.17188 2.9834C5.46096 3.6834 5.73463 4.33997 5.80371 4.47754C5.84674 4.56331 5.86595 4.62656 5.87109 4.67773C5.87544 4.72141 5.87164 4.77338 5.83691 4.84473C5.67646 5.17366 5.62408 5.30407 5.44336 5.51172C5.17323 5.82207 4.96166 6.1055 4.76953 6.29688C4.66698 6.39898 4.46281 6.59314 4.3623 6.86133C4.24382 7.17755 4.28972 7.51231 4.4834 7.84668C4.74403 8.2965 5.60666 9.70487 6.90625 10.9365L7.17188 11.1807C9.00907 12.8157 10.6066 13.3463 11.0234 13.5537C11.2891 13.686 11.5808 13.7848 11.8848 13.749C12.2075 13.7111 12.4466 13.5343 12.6309 13.3223L12.6318 13.3232C12.908 13.0128 13.816 11.9459 14.1504 11.4512C14.2043 11.3715 14.2413 11.3401 14.2568 11.3291C14.2668 11.3222 14.2691 11.3225 14.2715 11.3223C14.2806 11.3212 14.3086 11.3199 14.3701 11.334C14.433 11.3484 14.5082 11.3731 14.6133 11.4102H14.6143C14.794 11.4749 15.4414 11.7776 16.1396 12.1133C16.8217 12.4412 17.5087 12.7797 17.7393 12.8945C17.9978 13.0233 18.1563 13.0928 18.2939 13.1699C18.3613 13.2077 18.3993 13.235 18.4199 13.252C18.4225 13.2688 18.4274 13.291 18.4297 13.3193C18.4374 13.4168 18.4369 13.5568 18.4219 13.7324C18.3919 14.0828 18.3046 14.5441 18.127 15.042C17.9927 15.418 17.5526 15.8593 16.9492 16.2441C16.3584 16.6209 15.7354 16.865 15.3809 16.918C14.6137 17.0281 13.6874 17.0732 12.6699 16.749L12.668 16.748C11.9953 16.5365 11.1451 16.2577 10.0576 15.7861L10.0557 15.7852C5.53073 13.843 2.55716 9.29374 2.29883 8.94727C2.1865 8.79671 1.73318 8.19514 1.30762 7.35938C0.878462 6.51655 0.500047 5.47757 0.5 4.44922C0.5 2.37627 1.57049 1.37893 1.99609 0.919922C2.31561 0.575265 2.67515 0.500074 2.87402 0.5Z" fill="#001763" stroke="#001763"/>
</svg>
