<svg width="21" height="18" viewBox="0 0 21 18" fill="none" xmlns="http://www.w3.org/2000/svg">
<path d="M19.2471 0.548828C19.597 0.481978 19.8856 0.47733 20.1016 0.571289C20.1722 0.602514 20.2326 0.645337 20.2803 0.693359L20.2822 0.695312C20.3979 0.810536 20.4694 0.980965 20.4922 1.23535C20.5154 1.49442 20.484 1.79001 20.4365 2.10449L18.4209 15.458C18.3751 15.7631 18.3256 16.0412 18.2402 16.2842C18.1563 16.5232 18.0481 16.6943 17.9053 16.8096C17.6677 17.0011 17.2768 17.0545 16.8711 16.9424H16.8721C16.4609 16.8277 16.0844 16.5828 15.6396 16.2871C14.7424 15.6888 13.8448 15.0905 12.9473 14.4922C12.0494 13.8937 11.1515 13.2948 10.2539 12.6963H10.2529C10.0456 12.5583 9.86555 12.4233 9.73926 12.2812C9.61692 12.1435 9.57838 12.0371 9.5791 11.9463V11.9453C9.58008 11.8189 9.65916 11.6623 9.85156 11.4102H9.85254C10.5991 10.4295 11.5163 9.59372 12.4844 8.74023C13.4413 7.89662 14.4541 7.03033 15.3193 6.02051C15.4812 5.83176 15.634 5.56206 15.6895 5.28223C15.7176 5.14019 15.7277 4.9604 15.667 4.77832C15.6092 4.60539 15.4949 4.45604 15.3311 4.35449L15.2578 4.31348C14.9982 4.18611 14.7447 4.2259 14.5703 4.28711C14.4013 4.34644 14.2556 4.44298 14.1611 4.50879L14.1602 4.50977C13.0535 5.28366 11.9471 6.05789 10.8408 6.83203L7.52051 9.1543C6.82726 9.63911 6.20282 10.0581 5.52344 10.1943L5.38672 10.2178C4.89575 10.2882 4.38957 10.204 3.84375 10.0615L3.2832 9.90332L2.34082 9.62012C2.02708 9.52448 1.71387 9.42755 1.40137 9.3291L1.40039 9.32812L1.15918 9.24902C0.93797 9.17167 0.774725 9.09563 0.652344 8.9834C0.587247 8.92367 0.536733 8.84162 0.513672 8.76367C0.502526 8.72592 0.498868 8.69608 0.5 8.67285L0.511719 8.62207C0.531584 8.5819 0.583967 8.52647 0.730469 8.44629L0.776367 8.42383L0.90625 8.36133C1.70426 7.98917 2.5138 7.63937 3.33008 7.28711C3.35057 7.28125 3.36803 7.27782 3.37988 7.27344C3.42148 7.25803 3.45716 7.24047 3.47852 7.22949C3.49738 7.21979 3.52322 7.20586 3.52832 7.20312C3.54249 7.19555 3.53385 7.20106 3.5166 7.20801L3.52344 7.20508L3.5293 7.20215C3.5591 7.18912 3.58981 7.1759 3.62207 7.16211C3.65313 7.14883 3.68628 7.13472 3.71973 7.12012L4.08594 6.96191C4.20916 6.909 4.33244 6.85553 4.45508 6.80273L4.82324 6.64453C5.31378 6.43336 5.80473 6.22145 6.2959 6.00879V6.00977C6.78656 5.79853 7.27767 5.5865 7.76855 5.375C8.25947 5.16349 8.75069 4.95238 9.24121 4.74121C9.73193 4.52996 10.2229 4.31796 10.7139 4.10645C11.2048 3.89492 11.696 3.68384 12.1865 3.47266L15.1318 2.20312C15.6225 1.9919 16.1136 1.78083 16.6045 1.56934C17.0955 1.35778 17.5865 1.14578 18.0771 0.93457H18.0781C18.1426 0.906578 18.2065 0.875645 18.2627 0.848633C18.3215 0.820338 18.3728 0.7955 18.4238 0.772461C18.5275 0.725663 18.5996 0.701114 18.6543 0.691406H18.6562C18.7785 0.669495 18.8954 0.637768 18.9902 0.612305C19.0916 0.585096 19.17 0.563507 19.2471 0.548828Z" fill="#001763" stroke="#001763"/>
</svg>
