<svg width="22" height="21" viewBox="0 0 22 21" fill="none" xmlns="http://www.w3.org/2000/svg">
<path d="M8.32666 6.17627C8.40983 6.17627 8.49033 6.18351 8.56494 6.19678L8.56982 6.19775C8.68354 6.21671 8.7926 6.24845 8.896 6.29248L9.28271 8.73779C9.12045 8.87934 8.93192 8.98401 8.72705 9.0415L8.55713 9.08936L8.02588 9.23877L8.22607 9.75244L8.29053 9.9165V9.91748C8.92256 11.5272 10.2085 12.812 11.8179 13.4468V13.4478L11.9829 13.5122L12.4985 13.7173L12.6489 13.1831L12.6968 13.0122C12.7544 12.8069 12.8586 12.618 13.0005 12.4556L15.4438 12.8433C15.4881 12.9479 15.5217 13.0579 15.5415 13.1733L15.5425 13.1782C15.5547 13.2457 15.562 13.3238 15.562 13.4136C15.562 14.2174 14.9065 14.8727 14.1011 14.8735C10.1135 14.8732 6.86806 11.6266 6.8667 7.63721C6.86767 6.83149 7.52448 6.17629 8.32666 6.17627Z" fill="#001763" stroke="#001763"/>
<path d="M11.209 0.5C13.7203 0.5 16.121 1.43837 17.9727 3.14258C19.7997 4.82445 20.9282 7.09874 21.1592 9.55176L21.165 9.60938C21.1916 9.89945 21.2051 10.1994 21.2051 10.5V10.5557C21.1773 15.2704 17.8059 19.3682 13.1924 20.3008C13.0374 20.332 12.881 20.3596 12.7246 20.3838L12.2568 20.4453C11.9034 20.482 11.5511 20.5 11.208 20.5C9.90089 20.5 8.63158 20.2511 7.43262 19.7598L7.31641 19.7119L7.19043 19.7256L0.814453 20.4043L2.71777 16.1904L2.82715 15.9482L2.68848 15.7227C1.7226 14.1528 1.21191 12.3507 1.21191 10.5C1.21191 4.98653 5.6975 0.500009 11.209 0.5ZM11.209 1.61914C6.31236 1.61915 2.33018 5.60329 2.33008 10.501C2.33008 12.3787 2.91191 14.1767 4.0127 15.6973L4.01562 15.7012L4.07227 15.7783L4.13477 15.8613L3.05957 18.2451L2.7002 19.041L3.56836 18.9482L7.42871 18.5352L7.45703 18.5498H7.45801C7.57028 18.6041 7.68942 18.6562 7.81055 18.7051V18.7061C8.89098 19.1567 10.0354 19.3837 11.2109 19.3838C11.5396 19.3838 11.8714 19.365 12.1953 19.3281L12.1963 19.3291C12.5096 19.2955 12.8238 19.243 13.1299 19.1748L13.1289 19.1738C17.1309 18.2879 19.9929 14.8084 20.0869 10.7119V10.709C20.0881 10.6415 20.0898 10.5724 20.0898 10.502C20.0898 10.2581 20.0782 10.0122 20.0586 9.76953V9.76855C19.6834 5.19677 15.7975 1.61914 11.209 1.61914Z" fill="#001763" stroke="#001763"/>
</svg>
